<svg xmlns="http://www.w3.org/2000/svg" width="350" height="246" viewBox="0 0 350 246"><rect width="350" height="246" rx="10" fill="#1a1b27"/><rect x="1" y="1" width="348" height="244" rx="9" fill="none" stroke="#70a5fd" stroke-width="1" opacity="0.35"/><text x="25" y="32" font-family="'Segoe UI',sans-serif" font-size="15" font-weight="600" fill="#70a5fd">Top Languages</text><line x1="25" y1="40" x2="325" y2="40" stroke="#70a5fd" stroke-width="0.5" opacity="0.25"/><rect x="25" y="35" width="170" height="13" rx="3" fill="#e34c26"/><text x="202" y="48" font-family="'Segoe UI',sans-serif" font-size="12" fill="#c0caf5">HTML</text><text x="336" y="48" font-family="'Segoe UI',sans-serif" font-size="11" fill="#565f89" text-anchor="end">63.3%</text><rect x="25" y="65" width="51" height="13" rx="3" fill="#f1e05a"/><text x="83" y="78" font-family="'Segoe UI',sans-serif" font-size="12" fill="#c0caf5">JavaScript</text><text x="336" y="78" font-family="'Segoe UI',sans-serif" font-size="11" fill="#565f89" text-anchor="end">18.9%</text><rect x="25" y="95" width="24" height="13" rx="3" fill="#3178c6"/><text x="56" y="108" font-family="'Segoe UI',sans-serif" font-size="12" fill="#c0caf5">TypeScript</text><text x="336" y="108" font-family="'Segoe UI',sans-serif" font-size="11" fill="#565f89" text-anchor="end">9.2%</text><rect x="25" y="125" width="7" height="13" rx="3" fill="#663399"/><text x="39" y="138" font-family="'Segoe UI',sans-serif" font-size="12" fill="#c0caf5">CSS</text><text x="336" y="138" font-family="'Segoe UI',sans-serif" font-size="11" fill="#565f89" text-anchor="end">2.6%</text><rect x="25" y="155" width="6" height="13" rx="3" fill="#dea584"/><text x="38" y="168" font-family="'Segoe UI',sans-serif" font-size="12" fill="#c0caf5">Rust</text><text x="336" y="168" font-family="'Segoe UI',sans-serif" font-size="11" fill="#565f89" text-anchor="end">1.5%</text><rect x="25" y="185" width="6" height="13" rx="3" fill="#b07219"/><text x="38" y="198" font-family="'Segoe UI',sans-serif" font-size="12" fill="#c0caf5">Java</text><text x="336" y="198" font-family="'Segoe UI',sans-serif" font-size="11" fill="#565f89" text-anchor="end">1.1%</text><text x="338" y="240" font-family="'Segoe UI',sans-serif" font-size="9" fill="#565f89" text-anchor="end">updated daily</text></svg>